<?xml version="1.0" encoding="UTF-8" standalone="no"?>
<!DOCTYPE svg PUBLIC "-//W3C//DTD SVG 1.1//EN" "http://www.w3.org/Graphics/SVG/1.1/DTD/svg11.dtd">
<svg width="100%" height="100%" viewBox="0 0 239 190" version="1.1" xmlns="http://www.w3.org/2000/svg" xmlns:xlink="http://www.w3.org/1999/xlink" xml:space="preserve" xmlns:serif="http://www.serif.com/" style="fill-rule:evenodd;clip-rule:evenodd;stroke-linejoin:round;stroke-miterlimit:2;">
    <g transform="matrix(1,0,0,1,-80.98541,-121.106436)">
        <g transform="matrix(1,0,0,1,11.49608,87.326547)">
            <g transform="matrix(1,0,0,1,-11.49608,-87.326547)">
                <path d="M122,127C139.472,122.244 154.107,125.131 166.465,134.151L184.62,130.939L216.9,133.619L260.923,127.75L277.75,136.055L288.934,154.692L293.289,177.086L301.322,187.362L311.747,207.49L316,231L291,273L254.194,288.307L217.315,296.64L127,296C108.542,257.254 81.267,244.04 86.354,210.355C88.254,197.77 93.136,201.562 102,187C102.092,169.018 109.598,137.886 122,127Z" style="fill:url(#_Linear1);"/>
            </g>
            <path d="M145,127C100.843,125.1 81.667,152.667 76,166C70.333,179.333 80.167,214.287 108,217C143.174,220.428 186.333,203.333 185,170C184.421,155.524 184.166,128.686 145,127Z" style="fill:url(#_Linear2);"/>
            <g transform="matrix(1,0,0,1,-141.49608,-91.326547)">
                <path d="M246,153L237,155L236,175L243,178L250,172L251,157L246,153Z" style="fill:rgb(247,222,9);"/>
            </g>
            <path d="M95.672,217.144C89.852,214.342 83.884,209.344 83.551,208.475C82.853,206.651 74.509,200.177 71.39,181.515C68.816,166.118 75.761,156.009 77.026,154.167C79.956,149.902 70.532,145.967 71.229,124.493C71.787,107.293 89.746,102.17 89.957,97.509C90.016,96.19 81.099,72.079 97.985,48.88C107.053,36.422 129.704,28.344 152.208,42.915C155.366,44.96 155.318,45.755 159.427,45.078C181.625,41.426 184.205,42.09 204.453,45.74C212.413,47.175 211.175,40.734 231.527,37.703C263.134,32.995 284.875,58.99 282.827,83.528C282.379,88.897 283.902,88.509 287.059,92.838C303.874,115.897 306.913,132.046 306.054,143.497C305.579,149.834 303.74,154.935 299.905,161.543C286.809,184.103 256.575,218.358 162.532,210.798C160.911,210.667 163.648,206.319 164.825,206.56C166.837,206.971 168.899,206.731 170.894,206.788C281.844,209.962 306.524,154.771 299.639,127.465C295.586,111.385 287.034,100.723 282.85,95.162C280.091,91.495 280.086,97.412 277.921,99.916C277.66,100.217 272.941,102.448 275.565,95.527C284.741,71.327 270.796,52.398 256.411,45.689C235.494,35.935 216.534,46.396 210.718,49.845C209.088,50.811 199.592,58.591 196.843,69.58C195.309,75.708 195.978,80.749 193.47,79.553C191.991,78.848 192.173,60.61 202.669,52.535C205.303,50.509 186.552,43.355 165.534,47.882C156.894,49.743 156.893,49.685 148.572,52.717C146.463,53.486 146.484,52.788 145.629,52.511C148.286,48.667 151.419,50.113 150.551,47.472C150.15,46.251 137.96,39.481 127.5,39.49C117.049,39.499 113.837,41.796 105.58,46.585C105.384,46.699 101.659,48.86 104.511,49.209C104.841,49.249 104.555,48.101 108.532,48.181C123.066,48.474 125.991,87.475 107.31,101.231C100.255,106.426 94.369,101.704 92.444,102.373C92.284,102.429 79.856,111.62 76.924,118.676C76.435,119.854 72.62,129.036 87.488,130.63C101.086,132.088 114.765,125.344 125.456,123.281C164.144,115.819 179.79,136.484 217.468,145.631C256.054,154.998 259.084,139.907 267.505,144.492C273.432,147.719 268.638,161.47 244.75,174.934C221.91,187.807 203.912,191.441 184.483,193.286C179.962,193.716 179.584,198.889 168.782,206.721C166.13,208.644 162.85,210.727 158.726,212.94C143.724,220.989 123.679,224.094 108.576,221.133C106.008,220.63 98.744,218.623 95.672,217.144ZM99.247,70.367C98.99,71.104 97.056,76.644 99.97,80.097C105.191,86.284 108.642,66.484 101.457,68.353C99.932,68.75 100.214,69.127 99.247,70.367ZM196.585,178.9C190.251,180.253 188.988,180.253 188.414,181.445C185.07,188.383 185.231,188.682 185.759,189.053C186.278,189.419 202.7,187.402 216.403,183.185C256.489,170.846 266.152,151.763 265.897,149.44C265.248,143.517 255.319,154.207 247.236,159.075C226.008,171.861 207.727,176.301 196.585,178.9ZM205.441,159.956C201.901,159.905 201.912,159.631 198.461,160.308C188.425,162.276 190.381,165.591 190.353,168.498C190.318,172.076 189.308,174.001 190.14,174.849C191.701,176.442 212.991,169.741 218.331,168.054C221.336,167.104 220.17,165.918 219.466,165.54C212.739,161.924 212.886,161.49 205.441,159.956ZM186.166,166.746C185.942,166.761 185.723,166.82 185.5,166.835C184.417,166.909 184.851,167.4 184.568,168.548C180.847,183.619 155.883,207.382 122.483,209.215C89.534,211.023 83.228,195.329 81.738,198.573C81.266,199.599 85.702,203.97 85.882,204.157C101.412,220.342 130.455,222.221 157.332,208.182C185.456,193.492 186.698,171.964 186.166,166.746ZM104.568,92.603C100.779,95.004 96.756,95.445 95.267,93.761C95.127,93.602 90.984,88.915 92.63,93.483C98.311,109.25 115.036,95.965 117.088,75.45C119.177,54.579 108.84,47.479 100.682,53.691C100.549,53.791 96.127,57.641 101.523,55.59C114.896,50.508 117.767,84.237 104.568,92.603ZM150.445,126.936C145.336,126.392 140.149,125.6 130.556,126.906C99.66,131.115 75.883,152.222 75.332,174.497C74.59,204.53 126.102,217.398 163.887,188.996C181.159,176.013 183.603,160.113 183.111,155.537C180.482,131.092 158.982,128.597 150.445,126.936Z" style="fill:rgb(13,22,42);stroke:rgb(13,22,42);stroke-width:2.67px;"/>
            <g transform="matrix(1,0,0,1,-11.49608,-87.326547)">
                <path d="M113,146C120.867,145.893 122.585,155.975 121,165C119.264,174.883 112.985,179.734 109,178C104.062,175.851 104.342,167.466 105,160C105.589,153.316 109.57,146.047 113,146Z" style="fill:url(#_Linear3);"/>
            </g>
            <g transform="matrix(1,0,0,1.076503,-1,-6.219643)">
                <path d="M99.247,70.367C98.99,71.104 97.056,76.644 99.97,80.097C105.191,86.284 108.642,66.484 101.457,68.353C99.932,68.75 100.214,69.127 99.247,70.367Z" style="fill:rgb(13,22,42);stroke:rgb(13,22,42);stroke-width:3.85px;"/>
            </g>
            <path d="M205.441,159.956C201.901,159.905 201.912,159.631 198.461,160.308C188.425,162.276 190.381,165.591 190.353,168.498C190.318,172.076 189.308,174.001 190.14,174.849C191.701,176.442 212.991,169.741 218.331,168.054C221.336,167.104 220.17,165.918 219.466,165.54C212.739,161.924 212.886,161.49 205.441,159.956Z" style="fill:rgb(240,96,91);"/>
            <g transform="matrix(1,0,0,1,-11.49608,-87.326547)">
                <path d="M246,153L237,155L236,175L247,182L261,172L257,156L246,153Z" style="fill:rgb(13,22,42);"/>
            </g>
            <path d="M124.54,199.909C121.241,200.107 103.662,202.41 89.927,191.027C86.743,188.388 81.304,180.793 81.415,172.5C81.888,137.418 144.071,114.647 169.544,140.457C178.305,149.334 180.056,164.039 168.36,178.389C164.906,182.626 162.825,184.533 157.774,187.909C145.418,196.167 136.172,198.301 124.54,199.909ZM131.556,132.919C93.94,138.707 72.688,170.384 91.792,188.186C115.11,209.916 178.851,187.313 173.071,153.58C171.584,144.903 163.935,139.896 162.746,139.117C149.118,130.195 134.336,132.643 131.556,132.919Z" style="fill:rgb(13,22,42);stroke:rgb(13,22,42);stroke-width:1px;"/>
            <path d="M236.478,113.911C234.748,113.767 224.496,112.912 216.449,105.556C215.774,104.938 211.53,101.059 209.387,96.558C196.156,68.763 222.406,41.289 248.457,49.644C283.083,60.75 278.738,115.469 236.478,113.911ZM267.974,86.576C268.069,85.858 269.924,76.949 264.845,67.326C251.327,41.718 215.083,49.649 209.965,74.604C201.732,114.742 261.817,124.365 267.974,86.576Z" style="fill:rgb(13,22,42);stroke:rgb(13,22,42);stroke-width:2px;"/>
            <path d="M155.878,157.541C155.85,161.076 156.892,160.671 158.396,161.66C163.322,164.899 160.05,170.843 154.502,170.805C151.788,170.787 150.349,169.79 150.567,172.497C151.948,189.636 133.827,193.728 125.722,183.283C122.231,178.785 122.614,192.805 114.442,191.936C112.931,191.775 108.132,190.231 109.826,185.574C110.953,182.477 108.796,183.588 107.527,183.805C94.413,186.05 87.037,174.487 98.408,168.383C102.191,166.352 96.966,166.087 95.728,165.163C92.165,162.504 93.829,157.022 99.507,156.894C104.793,156.774 106.518,158.929 109.321,153.404C110.361,151.354 105.352,148.291 108.629,144.614C112.711,140.036 128.343,146.324 130.858,142.739C131.501,141.823 133.833,133.065 141.517,136.464C146.03,138.461 143.164,144.083 143.455,144.524C144.808,146.57 164.208,143.472 162.207,151.433C161.243,155.268 156.802,154.773 156.158,156.329C156,156.712 156.037,157.158 155.878,157.541ZM139.483,166.89C149.682,167.174 158.123,169.946 157.685,165.477C157.452,163.094 156.202,164.161 142.541,163.059C138.075,162.698 132.25,162.617 131.881,161.385C131.634,160.56 135.148,151.681 137.458,151.253C139.817,150.816 158.038,154.013 159.073,151.308C160.427,147.774 152.3,148.681 141.474,147.736C135.509,147.215 144.504,141.045 140.275,138.893C136.857,137.154 135.112,140.317 134.892,140.715C132.553,144.953 133.35,146.868 128.497,146.56C111.678,145.492 110.322,144.91 110.185,147.478C110.042,150.159 113.563,149.677 122.508,150.405C126.64,150.742 129.384,150.203 128.804,152.574C128.768,152.724 125.564,160.09 124.64,160.655C121.235,162.736 98.43,157.655 96.898,160.712C95.084,164.329 103.164,163.689 110.5,164.5C114.144,164.904 121.468,164.744 121.658,166.47C121.877,168.47 111.957,185.143 112.441,187.516C112.718,188.871 115.917,190.33 118.02,187.17C119.812,184.477 128.022,166.904 129.422,166.341C130.968,165.72 133.832,166.602 139.483,166.89ZM120.516,153.066C117.983,152.902 118.014,152.869 115.49,152.713C111.123,152.443 111.049,157.097 111.466,157.534C111.759,157.842 114.269,157.995 114.515,158.01C121.753,158.45 122.615,158.998 124.082,156.293C126.156,152.469 122.215,153.173 120.516,153.066ZM147.881,174.503C147.229,170.491 146.514,170.423 142.487,169.89C140.514,169.629 140.747,170.688 141.659,172.419C144.175,177.195 140.619,182.334 135.498,180.507C130.165,178.604 128.716,172.065 126.946,175.74C124.547,180.72 131.212,185.806 136.529,186.194C146.638,186.93 147.751,175.8 147.881,174.503ZM103.5,172.499C107.456,169.66 110.039,168.709 109.822,167.339C109.473,165.132 102.137,169.233 101.538,169.568C89.847,176.105 97.577,181.372 104.503,181.397C112.622,181.426 113.849,177.434 114.355,176.448C116.5,172.268 109.809,177.854 103.515,176.438C100.648,175.793 101.267,174.366 103.5,172.499ZM136.419,170.605C136.049,170.41 133.033,168.82 131.411,169.075C128.809,169.485 130.976,172.489 131.147,172.727C131.579,173.325 136.72,180.454 139.182,177.259C141.078,174.798 136.848,170.991 136.419,170.605ZM115.309,171.149C115.645,170.858 116.083,170.698 116.419,170.406C118.957,168.208 116.09,167.246 114.608,167.787C114.207,167.933 106.833,173.302 106.834,173.527C106.835,174.231 107.444,174.641 115.309,171.149ZM149.494,154.888C144.87,154.532 144.899,154.532 144.5,154.503C138.972,154.111 137.929,153.638 136.288,157.416C135.361,159.547 136.214,159.851 138.538,160.016C151.379,160.923 151.968,160.94 152.4,159.466C153.39,156.091 153.031,155.1 149.494,154.888Z" style="fill:rgb(13,22,42);"/>
            <path d="M235.446,57.074C253.778,55.223 262.105,69.054 263.069,78.55C265.103,98.573 246.741,107.863 235.465,105.734C206.053,100.181 208.639,60.453 235.446,57.074ZM228.038,80.892C228.52,93.287 238.719,92.595 239.697,81.699C240.46,73.194 232.823,65.837 228.927,75.509C228.126,77.499 228.05,80.447 228.038,80.892Z" style="fill:rgb(13,22,42);"/>
            <path d="M235.446,57.074C253.778,55.223 262.105,69.054 263.069,78.55C265.103,98.573 246.741,107.863 235.465,105.734C206.053,100.181 208.639,60.453 235.446,57.074ZM228.038,80.892C228.52,93.287 238.719,92.595 239.697,81.699C240.46,73.194 232.823,65.837 228.927,75.509C228.126,77.499 228.05,80.447 228.038,80.892Z" style="fill:url(#_Linear4);"/>
            <path d="M235.446,57.074C253.778,55.223 262.105,69.054 263.069,78.55C265.103,98.573 246.741,107.863 235.465,105.734C206.053,100.181 208.639,60.453 235.446,57.074ZM235.972,61.711L235.942,61.715C214.294,64.529 212.52,96.653 236.331,101.148C245.432,102.866 260.068,95.182 258.426,79.022C257.645,71.325 250.808,60.244 235.972,61.711ZM223.373,80.772C223.388,80.192 223.554,76.359 224.599,73.765C227.488,66.592 232.232,65.526 235.901,66.572C238.014,67.175 240.13,68.728 241.716,71.129C243.553,73.912 244.722,77.906 244.345,82.116C243.559,90.868 238.046,94.719 233.657,94.696C229.315,94.673 223.758,90.922 223.375,81.074C223.371,80.973 223.37,80.873 223.373,80.772ZM228.038,80.892C228.52,93.287 238.719,92.595 239.697,81.699C240.46,73.194 232.823,65.837 228.927,75.509C228.126,77.499 228.05,80.447 228.038,80.892Z" style="fill:rgb(13,22,42);"/>
            <g transform="matrix(0.493918,0,0,0.792573,115.899926,16.296789)">
                <path d="M227.038,81.501C227.061,80.939 227.216,77.219 228.838,74.709C236.726,62.505 252.187,71.788 250.642,82.519C248.663,96.266 228.014,97.139 227.038,81.501Z" style="fill:rgb(13,22,42);stroke:rgb(13,22,42);stroke-width:2.02px;"/>
            </g>
            <path d="M164.501,93.058C177.196,94.582 169.755,109.048 161.533,105.442C161.358,105.365 157.591,102.247 163.481,102.707C169.976,103.215 168.969,94.696 162.544,96.639C155.994,98.619 154.602,108.912 151.837,106.155C149.769,104.092 155.539,97.707 156.075,97.115C159.559,93.26 162.778,93.229 164.501,93.058Z" style="fill:rgb(13,22,42);stroke:rgb(13,22,42);stroke-width:1.33px;"/>
            <path d="M120.153,97.506C120.246,96.91 120.922,92.551 124.424,91.301C134.194,87.812 137.58,106.181 132.647,104.204C131.974,103.934 131.632,100.796 131.599,100.489C130.787,93.026 124.402,93.205 123.525,96.507C122.782,99.306 126.294,100.12 126.642,100.292C128.443,101.18 127.193,104.118 123.488,102.526C120.983,101.45 120.252,97.978 120.153,97.506Z" style="fill:rgb(13,22,42);stroke:rgb(13,22,42);stroke-width:1.33px;"/>
        </g>
        <ellipse cx="244" cy="163" rx="2" ry="3" style="fill:white;"/>
        <g transform="matrix(0.75,0,0,0.833333,-72.5,22.666667)">
            <ellipse cx="244" cy="163" rx="2" ry="3" style="fill:white;"/>
        </g>
    </g>
    <defs>
        <linearGradient id="_Linear1" x1="0" y1="0" x2="1" y2="0" gradientUnits="userSpaceOnUse" gradientTransform="matrix(-8,159,-159,-8,198,134)"><stop offset="0" style="stop-color:rgb(111,230,76);stop-opacity:1"/><stop offset="0.6" style="stop-color:rgb(99,220,72);stop-opacity:1"/><stop offset="0.81" style="stop-color:rgb(72,196,64);stop-opacity:1"/><stop offset="1" style="stop-color:rgb(43,171,55);stop-opacity:1"/></linearGradient>
        <linearGradient id="_Linear2" x1="0" y1="0" x2="1" y2="0" gradientUnits="userSpaceOnUse" gradientTransform="matrix(-28,86,-86,-28,145.50392,127.673453)"><stop offset="0" style="stop-color:rgb(247,222,9);stop-opacity:1"/><stop offset="0.48" style="stop-color:rgb(247,205,7);stop-opacity:1"/><stop offset="1" style="stop-color:rgb(246,157,0);stop-opacity:1"/></linearGradient>
        <linearGradient id="_Linear3" x1="0" y1="0" x2="1" y2="0" gradientUnits="userSpaceOnUse" gradientTransform="matrix(-2,34,-34,-2,113,144)"><stop offset="0" style="stop-color:rgb(247,222,5);stop-opacity:1"/><stop offset="0.52" style="stop-color:rgb(247,207,4);stop-opacity:1"/><stop offset="1" style="stop-color:rgb(247,158,0);stop-opacity:1"/></linearGradient>
        <linearGradient id="_Linear4" x1="0" y1="0" x2="1" y2="0" gradientUnits="userSpaceOnUse" gradientTransform="matrix(-5,38,-38,-5,242.50392,61.673453)"><stop offset="0" style="stop-color:rgb(247,222,5);stop-opacity:1"/><stop offset="0.45" style="stop-color:rgb(247,204,4);stop-opacity:1"/><stop offset="1" style="stop-color:rgb(246,160,0);stop-opacity:1"/></linearGradient>
    </defs>
</svg>
